<svg width="16" height="16" viewBox="0 0 16 16" fill="none" xmlns="http://www.w3.org/2000/svg">
<path fill-rule="evenodd" clip-rule="evenodd" d="M7.99988 12.0481L3.64988 14.2901C3.61695 14.3071 3.57996 14.3146 3.54302 14.3118C3.50609 14.309 3.47066 14.2959 3.4407 14.2742C3.41073 14.2524 3.3874 14.2227 3.37331 14.1885C3.35921 14.1542 3.35491 14.1167 3.36088 14.0801L4.15088 9.25015L0.672876 5.80815C0.646039 5.7824 0.626998 5.7496 0.617936 5.71353C0.608873 5.67745 0.610156 5.63956 0.621636 5.60418C0.633116 5.5688 0.65433 5.53737 0.682847 5.51348C0.711364 5.4896 0.746031 5.47424 0.782876 5.46915L5.61988 4.72615L7.81988 0.356148C7.83646 0.322867 7.862 0.294869 7.89362 0.275299C7.92524 0.255729 7.96169 0.245361 7.99888 0.245361C8.03606 0.245361 8.07251 0.255729 8.10413 0.275299C8.13575 0.294869 8.16129 0.322867 8.17788 0.356148L10.3779 4.72615L15.2149 5.46915C15.2515 5.47459 15.2859 5.49015 15.3142 5.51408C15.3424 5.538 15.3635 5.56934 15.3749 5.60457C15.3863 5.6398 15.3877 5.67751 15.3789 5.71348C15.37 5.74945 15.3513 5.78223 15.3249 5.80815L11.8499 9.25115L12.6379 14.0812C12.6436 14.1176 12.6392 14.155 12.625 14.1891C12.6108 14.2232 12.5874 14.2527 12.5575 14.2743C12.5276 14.296 12.4923 14.3089 12.4554 14.3117C12.4186 14.3145 12.3817 14.307 12.3489 14.2901L7.99988 12.0481Z" fill="#F6BD2B"/>
</svg>
